<svg xmlns="http://www.w3.org/2000/svg" width="256" height="256" viewBox="0 0 48 48">
  <circle cx="24" cy="24" r="24" fill="#FFEDE4"/>
  <path d="M24 33c-7.7 0-14 5.2-15.5 12.1A24 24 0 0 0 24 48c5.9 0 11.3-2.1 15.5-2.9C38 38.2 31.7 33 24 33z" fill="#FF4E19"/>
  <path d="M20.6 34.2 24 41.4l3.4-7.2a15 15 0 0 0-6.8 0z" fill="#FFEDE4"/>
  <path d="M24 5.6c-7.6 0-13.4 5.6-13.4 13.3v6.4c0 2.3-1.1 3.2-1.1 5.2 0 2.2 1.7 3.7 3.8 3.7h21.4c2.1 0 3.8-1.5 3.8-3.7 0-2-1.1-2.9-1.1-5.2v-6.4C37.4 11.2 31.6 5.6 24 5.6z" fill="#FF4E19"/>
  <path d="M24 11.6c-4.9 0-8.4 3.4-8.4 8.6 0 5.6 3.8 10.4 8.4 10.4s8.4-4.8 8.4-10.4c0-5.2-3.5-8.6-8.4-8.6z" fill="#FFEDE4"/>
  <path d="M24 10.4c-4.6 0-8.4 3.1-8.4 7.6 0 .9.1 1.7.3 2.4 1.9-.6 4.6-2.3 6-4.9 1.7 2.6 5.5 4.5 10.2 4.9.2-.7.3-1.5.3-2.4 0-4.5-3.8-7.6-8.4-7.6z" fill="#FF4E19"/>
  <circle cx="20.4" cy="21.4" r="1.35" fill="#FF4E19"/>
  <circle cx="27.6" cy="21.4" r="1.35" fill="#FF4E19"/>
  <path d="M21.9 25.4c.6.8 1.3 1.2 2.1 1.2s1.5-.4 2.1-1.2" stroke="#FF4E19" stroke-width="1.3" stroke-linecap="round" fill="none"/>
</svg>
